<svg width="48" height="48" viewBox="0 0 48 48" fill="none" xmlns="http://www.w3.org/2000/svg">
<path d="M9.18381 11.1995C10.4263 11.1995 11.4335 10.1691 11.4335 8.898C11.4335 7.62693 10.4263 6.59653 9.18381 6.59653C7.94132 6.59653 6.93408 7.62693 6.93408 8.898C6.93408 10.1691 7.94132 11.1995 9.18381 11.1995Z" fill="#FFAD00"/>
<path d="M35.3723 14.2903C35.2412 14.2084 35.1175 14.119 34.9937 14.0222C34.8918 13.9477 34.7971 13.8658 34.7025 13.7839C34.586 13.687 34.4768 13.5753 34.3675 13.471C34.2802 13.3817 34.1928 13.2923 34.1127 13.2029C34.0108 13.0837 33.9161 12.9646 33.8215 12.8454C33.7487 12.7486 33.6686 12.6517 33.6031 12.5475C33.5157 12.4134 33.4356 12.2793 33.3555 12.1453C33.2973 12.041 33.2318 11.9442 33.1808 11.8324C33.108 11.6835 33.0425 11.5271 32.9769 11.3781C32.9333 11.2738 32.8896 11.177 32.8459 11.0653C32.7876 10.8865 32.7367 10.7078 32.693 10.529C32.6712 10.4396 32.642 10.3503 32.6202 10.2534C32.5601 9.97362 32.5188 9.68994 32.4964 9.40436H15.547C15.5252 9.69483 15.4815 9.97786 15.4232 10.2534C15.4014 10.3428 15.3723 10.4322 15.3504 10.529C15.3068 10.7078 15.2558 10.894 15.1975 11.0653C15.1611 11.1696 15.1102 11.2738 15.0738 11.3781C15.0082 11.5345 14.95 11.6835 14.8699 11.8324C14.8189 11.9367 14.7534 12.041 14.6952 12.1453C14.6151 12.2793 14.535 12.4208 14.4476 12.5549C14.3821 12.6517 14.302 12.7486 14.2292 12.8454C14.1346 12.972 14.0399 13.0912 13.938 13.2104C13.8579 13.2997 13.7705 13.3891 13.6832 13.4785C13.574 13.5902 13.4647 13.6945 13.341 13.7988C13.2463 13.8807 13.1517 13.9552 13.0497 14.0296C12.926 14.1265 12.7949 14.2158 12.6639 14.2978C12.5619 14.3648 12.4527 14.4318 12.3508 14.4914L12.1761 14.6032C12.4195 15.0662 12.7808 15.4532 13.2217 15.7233C13.6626 15.9934 14.1667 16.1365 14.6806 16.1375H33.3701C34.4258 16.1375 35.3868 15.5342 35.8746 14.6032C35.8164 14.5734 35.7582 14.5287 35.6999 14.4914C35.5834 14.4244 35.4815 14.3574 35.3723 14.2903ZM11.4917 41.8261H10.385C9.4895 41.8261 8.75415 42.5709 8.75415 43.4944V43.8296C8.75415 44.7457 9.48222 45.498 10.385 45.498H37.6511C38.5467 45.498 39.282 44.7532 39.282 43.8296V43.487C39.282 42.5709 38.5539 41.8186 37.6511 41.8186H11.4917V41.8261ZM15.4742 17.1281V36.1431H32.5765V17.1281H15.4742ZM20.2066 32.8883C20.2066 33.0226 20.1545 33.1515 20.0616 33.2464C19.9688 33.3414 19.8429 33.3948 19.7116 33.3948C19.5803 33.3948 19.4543 33.3414 19.3615 33.2464C19.2686 33.1515 19.2165 33.0226 19.2165 32.8883V20.6734C19.2165 20.5391 19.2686 20.4102 19.3615 20.3152C19.4543 20.2203 19.5803 20.1669 19.7116 20.1669C19.8429 20.1669 19.9688 20.2203 20.0616 20.3152C20.1545 20.4102 20.2066 20.5391 20.2066 20.6734V32.8883ZM24.5168 32.8883C24.5168 33.0226 24.4646 33.1515 24.3718 33.2464C24.2789 33.3414 24.153 33.3948 24.0217 33.3948C23.8904 33.3948 23.7645 33.3414 23.6716 33.2464C23.5788 33.1515 23.5266 33.0226 23.5266 32.8883V20.6734C23.5266 20.5391 23.5788 20.4102 23.6716 20.3152C23.7645 20.2203 23.8904 20.1669 24.0217 20.1669C24.153 20.1669 24.2789 20.2203 24.3718 20.3152C24.4646 20.4102 24.5168 20.5391 24.5168 20.6734V32.8883ZM28.8197 32.8883C28.8197 33.0226 28.7675 33.1515 28.6747 33.2464C28.5818 33.3414 28.4559 33.3948 28.3246 33.3948C28.1933 33.3948 28.0674 33.3414 27.9745 33.2464C27.8817 33.1515 27.8295 33.0226 27.8295 32.8883V20.6734C27.8295 20.5391 27.8817 20.4102 27.9745 20.3152C28.0674 20.2203 28.1933 20.1669 28.3246 20.1669C28.4559 20.1669 28.5818 20.2203 28.6747 20.3152C28.7675 20.4102 28.8197 20.5391 28.8197 20.6734V32.8883Z" fill="#FFAD00"/>
<path d="M38.8088 11.1995C40.0513 11.1995 41.0585 10.1691 41.0585 8.898C41.0585 7.62693 40.0513 6.59653 38.8088 6.59653C37.5663 6.59653 36.5591 7.62693 36.5591 8.898C36.5591 10.1691 37.5663 11.1995 38.8088 11.1995Z" fill="#FFAD00"/>
<path d="M14.9792 37.1488H14.4404C13.0862 37.1488 11.9868 38.2735 11.9868 39.6588V40.8133H36.064V39.6588C36.064 38.2735 34.9646 37.1488 33.6104 37.1488H33.0716H14.9792ZM38.7433 3.49817H9.30026C6.39527 3.49817 4.02905 5.91881 4.02905 8.89806C4.02905 11.8699 6.39527 14.2905 9.30026 14.2905C10.0138 14.2905 10.6981 14.149 11.3388 13.8734C11.4626 13.8213 11.5791 13.7468 11.7029 13.6872C11.8194 13.6276 11.9359 13.5755 12.0451 13.5085C12.8188 13.0272 13.4583 12.3502 13.9021 11.5427C14.3459 10.7352 14.5789 9.82442 14.5787 8.89806C14.5787 8.62248 14.7972 8.39159 15.0738 8.39159H32.977C33.2464 8.39159 33.4721 8.61503 33.4721 8.89806C33.4721 11.0804 34.7462 13.0318 36.712 13.8734C37.3527 14.149 38.0371 14.2905 38.7578 14.2905C41.6628 14.2905 44.0291 11.8699 44.0291 8.89806C44.0218 5.92626 41.6556 3.49817 38.7433 3.49817ZM9.18377 12.205C7.4 12.205 5.95115 10.7229 5.95115 8.89806C5.95115 7.07327 7.4 5.59109 9.18377 5.59109C10.9675 5.59109 12.4164 7.07327 12.4164 8.89806C12.4164 10.7229 10.9603 12.205 9.18377 12.205ZM38.8088 12.205C37.025 12.205 35.5762 10.7229 35.5762 8.89806C35.5762 7.07327 37.025 5.59109 38.8088 5.59109C40.5926 5.59109 42.0414 7.07327 42.0414 8.89806C42.0414 10.7229 40.5926 12.205 38.8088 12.205Z" fill="#FFAD00"/>
</svg>
