<svg width="48" height="48" viewBox="0 0 48 48" fill="none" xmlns="http://www.w3.org/2000/svg">
<path d="M25.7106 6.39265C26.1859 5.76304 26.1095 4.42761 26.0418 3.24959C26.0393 3.19881 26.0364 3.14915 26.0336 3.09872C25.3674 3.03514 24.693 3 24.0105 3C21.3951 3 18.8926 3.48157 16.5829 4.35458C18.2305 5.14597 20.7809 6.50812 23.6157 8.52075C24.583 7.6888 25.3125 6.92078 25.7106 6.39265ZM36.3563 18.3755C35.3207 18.4924 34.4474 18.6623 33.7005 18.9005C37.271 25.1315 38.6632 33.0035 39.0038 38.7065C42.5411 35.1041 44.7875 30.2342 45 24.8399C42.5626 21.8455 39.3337 18.0379 36.3563 18.3755ZM15.1298 12.9971C17.6386 12.4753 19.9956 11.2132 21.8749 9.88109C17.9543 7.18223 14.6844 5.7816 14.0339 5.51499C9.9665 7.71269 6.71167 11.2143 4.81812 15.457C7.27935 14.4768 9.94492 13.9782 12.563 13.4923C13.41 13.3351 14.2855 13.1726 15.1298 12.9971Z" fill="#FFAD00"/>
<path d="M29.6521 13.6077C29.8777 13.8341 30.1007 14.0631 30.3211 14.2945C31.1395 15.1533 31.8822 16.0925 32.5631 17.0863C33.5549 16.712 34.7224 16.4466 36.12 16.2887C39.4129 15.9164 42.3409 18.5236 44.8539 21.3939C44.3151 17.0426 42.448 13.1044 39.6658 9.99854C38.1473 10.1815 36.4543 10.4914 34.7287 11.006C33.5967 11.3439 31.794 12.262 29.6521 13.6077ZM26.8876 24.4527C27.7493 21.5354 28.7475 19.4323 30.6815 18.0673C30.101 17.2345 29.4764 16.4529 28.7998 15.7428C28.4869 15.4143 28.1704 15.097 27.8525 14.7853C20.0934 20.064 9.46487 29.7608 8.49841 38.1624C11.7245 41.6903 16.1397 44.1098 21.1099 44.7962C22.9197 41.1949 24.623 33.874 25.6355 29.5199C26.1219 27.4286 26.5417 25.6228 26.8876 24.4527Z" fill="#FFAD00"/>
<path d="M18.09 19.8263C20.7954 17.3345 23.6524 15.1002 26.2655 13.3044C25.4249 12.5618 24.5568 11.8508 23.6631 11.1729C21.4926 12.8037 18.6509 14.4098 15.5577 15.0528C14.6915 15.233 13.8045 15.3977 12.9469 15.5568C9.64273 16.1701 6.47094 16.7641 3.80356 18.2515C3.2841 20.0791 3 22.0059 3 23.9999C3 28.4605 4.39584 32.5934 6.76845 35.9944C8.30552 29.9117 13.5777 23.9822 18.09 19.8263ZM28.0754 12.105C30.575 10.5122 32.7299 9.41093 34.1281 8.9938C35.3836 8.61902 36.6153 8.34606 37.7816 8.14699C35.0865 5.80615 31.792 4.13779 28.1551 3.41058C28.2358 4.8772 28.2709 6.48739 27.3882 7.65725C26.9688 8.2128 26.2593 8.97472 25.3361 9.80134C26.2783 10.5339 27.1921 11.3024 28.0754 12.105ZM28.9024 25.0472C28.5744 26.1579 28.1606 27.9361 27.6818 29.995C26.2683 36.0741 24.9157 41.5138 23.3361 44.9827C23.5604 44.9898 23.7845 44.9998 24.0105 44.9998C28.9071 44.9998 33.4085 43.3211 36.9808 40.5144C36.8397 34.5464 35.4083 26.1051 31.8026 19.8388C30.4042 20.8776 29.6516 22.5119 28.9024 25.0472Z" fill="#FFAD00"/>
</svg>
