<svg width="45" height="45" viewBox="0 0 45 45" fill="none" xmlns="http://www.w3.org/2000/svg">
<circle cx="22.5" cy="22.5" r="22.5" fill="#FFC102"/>
<path d="M23.458 23.2422C23.8877 23.2422 24.2148 23.374 24.4492 23.6377C24.918 24.1699 24.9277 25.2344 24.4395 25.791C24.2002 26.0645 23.8584 26.2061 23.4092 26.2061H22.0957V23.2422H23.458ZM32.4082 15.127L27.623 10.3418C27.4033 10.1221 27.1055 10 26.793 10H26.5V16.25H32.75V15.9521C32.75 15.6445 32.6279 15.3467 32.4082 15.127ZM24.9375 16.6406V10H15.1719C14.5225 10 14 10.5225 14 11.1719V33.8281C14 34.4775 14.5225 35 15.1719 35H31.5781C32.2275 35 32.75 34.4775 32.75 33.8281V17.8125H26.1094C25.4648 17.8125 24.9375 17.2852 24.9375 16.6406ZM27.5254 24.707C27.5254 29.1162 23.1895 28.4961 22.1006 28.4961V31.2891C22.1006 31.6113 21.8369 31.875 21.5146 31.875H20.0107C19.6885 31.875 19.4248 31.6113 19.4248 31.2891V21.5332C19.4248 21.2109 19.6885 20.9473 20.0107 20.9473H23.9658C26.1387 20.9473 27.5254 22.5488 27.5254 24.707Z" fill="white"/>
</svg>
