<svg width="45" height="45" viewBox="0 0 45 45" fill="none" xmlns="http://www.w3.org/2000/svg">
<circle cx="22.5" cy="22.5" r="22.5" fill="#FFC102"/>
<path d="M22.1695 18.0438L14.1673 24.6345V31.7478C14.1673 31.932 14.2405 32.1086 14.3707 32.2389C14.5009 32.3691 14.6776 32.4423 14.8618 32.4423L19.7255 32.4297C19.9091 32.4288 20.0848 32.3552 20.2143 32.2251C20.3438 32.0949 20.4165 31.9188 20.4164 31.7352V27.5812C20.4164 27.397 20.4896 27.2204 20.6198 27.0901C20.7501 26.9599 20.9267 26.8867 21.1109 26.8867H23.8887C24.0728 26.8867 24.2495 26.9599 24.3797 27.0901C24.51 27.2204 24.5831 27.397 24.5831 27.5812V31.7322C24.5828 31.8236 24.6006 31.9141 24.6354 31.9986C24.6701 32.0831 24.7212 32.1599 24.7857 32.2247C24.8503 32.2894 24.9269 32.3407 25.0113 32.3758C25.0957 32.4108 25.1862 32.4288 25.2776 32.4288L30.1395 32.4423C30.3237 32.4423 30.5004 32.3691 30.6306 32.2389C30.7608 32.1086 30.834 31.932 30.834 31.7478V24.6298L22.8335 18.0438C22.7395 17.968 22.6223 17.9267 22.5015 17.9267C22.3807 17.9267 22.2635 17.968 22.1695 18.0438ZM34.8097 22.5234L31.1812 19.5326V13.5208C31.1812 13.3827 31.1263 13.2502 31.0287 13.1525C30.931 13.0549 30.7985 13 30.6604 13H28.2298C28.0917 13 27.9592 13.0549 27.8615 13.1525C27.7639 13.2502 27.709 13.3827 27.709 13.5208V16.6723L23.8231 13.4753C23.4502 13.1684 22.9823 13.0006 22.4993 13.0006C22.0164 13.0006 21.5485 13.1684 21.1756 13.4753L10.189 22.5234C10.1363 22.567 10.0926 22.6206 10.0606 22.681C10.0286 22.7415 10.0088 22.8077 10.0023 22.8758C9.99587 22.9439 10.0029 23.0126 10.023 23.078C10.0431 23.1434 10.076 23.2042 10.1196 23.2569L11.2263 24.6024C11.2698 24.6553 11.3234 24.6991 11.3838 24.7313C11.4443 24.7635 11.5105 24.7835 11.5786 24.79C11.6468 24.7966 11.7156 24.7897 11.7811 24.7696C11.8466 24.7496 11.9075 24.7168 11.9603 24.6732L22.1695 16.2643C22.2635 16.1885 22.3807 16.1472 22.5015 16.1472C22.6223 16.1472 22.7395 16.1885 22.8335 16.2643L33.0432 24.6732C33.0959 24.7168 33.1567 24.7496 33.2221 24.7697C33.2875 24.7898 33.3562 24.7969 33.4243 24.7904C33.4924 24.784 33.5586 24.7642 33.6191 24.7321C33.6795 24.7001 33.7331 24.6565 33.7767 24.6037L34.8835 23.2582C34.927 23.2052 34.9597 23.1441 34.9796 23.0784C34.9995 23.0128 35.0062 22.9438 34.9993 22.8755C34.9925 22.8072 34.9722 22.741 34.9396 22.6805C34.9071 22.6201 34.8629 22.5667 34.8097 22.5234Z" fill="white"/>
</svg>
