<svg width="45" height="45" viewBox="0 0 45 45" fill="none" xmlns="http://www.w3.org/2000/svg">
<circle cx="22.5" cy="22.5" r="22.5" fill="#FFC102"/>
<path d="M28.2857 25.375C27.1755 25.375 26.1551 25.7262 25.3496 26.3136L20.3168 23.4362C20.4658 22.8195 20.4658 22.1805 20.3168 21.5637L25.3496 18.6863C26.1551 19.2738 27.1755 19.625 28.2857 19.625C30.8893 19.625 33 17.6942 33 15.3125C33 12.9308 30.8893 11 28.2857 11C25.6821 11 23.5714 12.9308 23.5714 15.3125C23.5714 15.6341 23.6102 15.9472 23.6832 16.2487L18.6504 19.1261C17.8449 18.5387 16.8245 18.1875 15.7143 18.1875C13.1107 18.1875 11 20.1183 11 22.5C11 24.8817 13.1107 26.8125 15.7143 26.8125C16.8245 26.8125 17.8449 26.4613 18.6504 25.8739L23.6832 28.7513C23.6088 29.0587 23.5713 29.3726 23.5714 29.6875C23.5714 32.0692 25.6821 34 28.2857 34C30.8893 34 33 32.0692 33 29.6875C33 27.3058 30.8893 25.375 28.2857 25.375Z" fill="white"/>
</svg>
