<svg width="45" height="45" viewBox="0 0 45 45" fill="none" xmlns="http://www.w3.org/2000/svg">
<circle cx="22.5" cy="22.5" r="22.5" fill="#FFC102"/>
<path d="M31.178 19.7376L30.8499 20.2916C30.7298 20.497 30.4786 20.5794 30.2571 20.4942C29.7986 20.3159 29.3803 20.0638 29.0136 19.7501C28.836 19.5991 28.7928 19.3368 28.9128 19.1353L29.241 18.5813C28.9759 18.265 28.7701 17.8988 28.635 17.5023L27.9906 17.4932C27.7562 17.4899 27.5555 17.3191 27.5197 17.0842C27.4482 16.6144 27.4512 16.1222 27.5401 15.6351C27.5825 15.4013 27.788 15.2323 28.0224 15.2356L28.6668 15.2447C28.813 14.8522 29.029 14.4919 29.3029 14.1833L28.9905 13.6202C28.8762 13.4155 28.9229 13.1544 29.1085 13.0085C29.4839 12.7052 29.9131 12.4651 30.3726 12.2997C30.5963 12.2208 30.8451 12.3103 30.9594 12.5189L31.2718 13.082C31.6829 13.0136 32.1009 13.0194 32.5099 13.0994L32.8381 12.5454C32.9582 12.34 33.2094 12.2576 33.4308 12.3428C33.8893 12.5211 34.3077 12.7732 34.6744 13.0869C34.852 13.2379 34.8952 13.5003 34.7751 13.7017L34.447 14.2557C34.7121 14.572 34.9179 14.9382 35.0529 15.3347L35.6974 15.3438C35.9317 15.3471 36.1325 15.5179 36.1682 15.7528C36.2398 16.2226 36.2367 16.7148 36.1478 17.2019C36.1055 17.4357 35.8999 17.6047 35.6656 17.6014L35.0211 17.5923C34.875 17.9848 34.6589 18.3451 34.385 18.6537L34.6974 19.2168C34.8117 19.4215 34.7651 19.6826 34.5794 19.8285C34.204 20.1318 33.7748 20.3719 33.3154 20.5373C33.0916 20.6162 32.8429 20.5267 32.7286 20.3181L32.4162 19.755C32.0089 19.8235 31.5871 19.8176 31.178 19.7376ZM30.8003 17.4352C32.2877 18.6125 34.0266 16.922 32.8916 15.4019C31.4042 14.2207 29.6653 15.9151 30.8003 17.4352ZM26.2121 23.3828L27.5192 24.0576C27.9105 24.2897 28.0755 24.7725 27.9133 25.1999C27.5523 26.1403 26.8566 26.9977 26.2132 27.7466C25.9192 28.0901 25.4181 28.169 25.0268 27.9369L23.8994 27.2647C23.2669 27.791 22.5344 28.2065 21.7376 28.4727L21.7192 29.785C21.7128 30.2381 21.3831 30.6241 20.9367 30.696C19.9736 30.8465 18.9657 30.8401 17.9722 30.6542C17.5241 30.5698 17.1975 30.1784 17.204 29.7214L17.2225 28.4091C16.4335 28.1167 15.713 27.6846 15.0956 27.1407L13.9498 27.777C13.556 27.998 13.0534 27.905 12.7692 27.5533C12.1472 26.7866 11.4915 25.9101 11.1571 24.9639C11.0069 24.536 11.1855 24.058 11.5832 23.8331L12.8931 23.1952C12.7523 22.3767 12.7641 21.537 12.928 20.7189L11.6367 20.0405C11.2454 19.8084 11.0764 19.3255 11.2425 18.902C11.6034 17.9617 12.2836 17.104 12.927 16.3552C13.2209 16.0116 13.7221 15.9327 14.1134 16.1648L15.2407 16.837C15.8732 16.3107 16.6057 15.8952 17.4025 15.6291L17.421 14.3128C17.4274 13.8636 17.7531 13.4775 18.1995 13.4057C19.1627 13.2552 20.1744 13.2616 21.168 13.4436C21.6161 13.5281 21.9427 13.9194 21.9362 14.3764L21.9177 15.6888C22.7067 15.9812 23.4272 16.4132 24.0446 16.9571L25.1905 16.317C25.5842 16.0959 26.0869 16.189 26.371 16.5406C26.9931 17.3073 27.6449 18.1837 27.9792 19.1339C28.1294 19.5618 27.9703 20.0401 27.5726 20.265L26.2471 20.9026C26.3878 21.725 26.376 22.5647 26.2121 23.3828ZM21.6072 24.1423C23.9619 21.1673 20.577 17.6857 17.5369 19.9556C15.1822 22.9306 18.5671 26.4122 21.6072 24.1423ZM31.0136 31.4122L30.6854 31.9662C30.5653 32.1716 30.3141 32.254 30.0927 32.1688C29.6342 31.9905 29.2158 31.7385 28.8491 31.4247C28.6715 31.2737 28.6283 31.0114 28.7484 30.8099L29.0765 30.2559C28.8114 29.9396 28.6056 29.5734 28.4706 29.1769L27.8261 29.1679C27.5918 29.1646 27.391 28.9937 27.3553 28.7588C27.2837 28.289 27.2868 27.7968 27.3757 27.3098C27.418 27.076 27.6236 26.907 27.8579 26.9103L28.5024 26.9194C28.6485 26.5268 28.8646 26.1666 29.1385 25.8579L28.8261 25.2948C28.7118 25.0901 28.7584 24.829 28.9441 24.6832C29.3195 24.3798 29.7487 24.1398 30.2081 23.9743C30.4319 23.8954 30.6806 23.9849 30.7949 24.1936L31.1073 24.7566C31.5185 24.6882 31.9364 24.6941 32.3455 24.774L32.6736 24.22C32.7937 24.0147 33.0449 23.9323 33.2664 24.0174C33.7249 24.1958 34.1432 24.4478 34.5099 24.7616C34.6875 24.9125 34.7307 25.1749 34.6107 25.3763L34.2825 25.9304C34.5476 26.2466 34.7534 26.6128 34.8885 27.0093L35.5329 27.0184C35.7673 27.0217 35.968 27.1925 36.0038 27.4274C36.0753 27.8972 36.0723 28.3894 35.9834 28.8765C35.941 29.1103 35.7355 29.2793 35.5011 29.276L34.8567 29.2669C34.7105 29.6594 34.4945 30.0197 34.2206 30.3284L34.533 30.8914C34.6473 31.0962 34.6006 31.3572 34.415 31.5031C34.0396 31.8064 33.6104 32.0465 33.1509 32.2119C32.9272 32.2908 32.6784 32.2014 32.5641 31.9927L32.2517 31.4296C31.8445 31.4981 31.4226 31.4922 31.0136 31.4122ZM30.6359 29.1059C32.1233 30.2832 33.8622 28.5927 32.7272 27.0726C31.2397 25.8953 29.5009 27.5858 30.6359 29.1059Z" fill="white"/>
</svg>
